<svg id="Layer_1" data-name="Layer 1" xmlns="http://www.w3.org/2000/svg" viewBox="0 0 10.16 10.16"><defs><style>.cls-1{fill:#fff;}</style></defs><path class="cls-1" d="M5.08,10.16H1.19A1.17,1.17,0,0,1,0,9C0,6.38,0,3.78,0,1.18A1.13,1.13,0,0,1,1.18,0H9a1.12,1.12,0,0,1,1.17,1.17V9A1.12,1.12,0,0,1,9,10.16ZM3.39,5.08c0,.89,0,1.79,0,2.68,0,.08,0,.14.12.14q1.57,0,3.15,0c.09,0,.12,0,.12-.12q0-.43,0-.87c0-.11,0-.14-.15-.14h-2c-.1,0-.14,0-.14-.14,0-.27,0-.55,0-.83s0-.17.17-.17h2c.1,0,.14,0,.14-.13,0-.28,0-.56,0-.83s0-.16-.15-.16h-2c-.11,0-.15,0-.15-.14,0-.28,0-.56,0-.84s0-.15.16-.15c.65,0,1.31,0,2,0,.1,0,.15,0,.15-.14,0-.28,0-.57,0-.86,0-.1,0-.13-.14-.13-1,0-2.07,0-3.1,0-.12,0-.15,0-.15.15C3.4,3.3,3.39,4.19,3.39,5.08Z"/></svg>