<svg id="Layer_1" data-name="Layer 1" xmlns="http://www.w3.org/2000/svg" viewBox="0 0 24.88 22.64"><defs><style>.cls-1{fill:#fff;}</style></defs><path class="cls-1" d="M9.38,18.19,11,16.71c.9-.86,1.8-1.72,2.71-2.57a1.26,1.26,0,0,1,1.85.16,1.14,1.14,0,0,1-.18,1.54L14.12,17a.22.22,0,0,0-.07.07s.06,0,.09,0c1.74,0,3.48,0,5.22,0a3.41,3.41,0,0,0,3.23-3.38c0-2.68,0-5.37,0-8.06A3.47,3.47,0,0,0,20.3,2.35a4,4,0,0,0-1.41-.24H6A3.61,3.61,0,0,0,2.79,3.8a3.12,3.12,0,0,0-.5,1.73c0,2.73,0,5.45,0,8.18A3.4,3.4,0,0,0,5,17a10.91,10.91,0,0,0,1.61.12c.14,0,.27,0,.42,0v2.17h-.4a9.56,9.56,0,0,1-2.2-.16A5.72,5.72,0,0,1,.07,14.53,6.25,6.25,0,0,1,0,13.66C0,11,0,8.29,0,5.6A5.43,5.43,0,0,1,3,.69,5.86,5.86,0,0,1,5.88,0c4.43,0,8.86,0,13.28,0a5.73,5.73,0,0,1,5.59,4.46,4.92,4.92,0,0,1,.11,1.09c0,2.73,0,5.47,0,8.2a5.36,5.36,0,0,1-3,4.88,6,6,0,0,1-3,.7H14a.28.28,0,0,0,.05.08c.39.37.77.75,1.17,1.12a1.16,1.16,0,0,1,.22,1.64,1.26,1.26,0,0,1-1.77.18c-.31-.26-.6-.55-.9-.84L9.48,18.3Z"/></svg>