<svg id="Layer_1" data-name="Layer 1" xmlns="http://www.w3.org/2000/svg" viewBox="0 0 27.12 22.64"><defs><style>.cls-1{fill:#fff;}</style></defs><path class="cls-1" d="M22.14,3.24l-1-1c-.67-.63-.74-1.3-.2-1.85a1.33,1.33,0,0,1,1.95,0c1.31,1.24,2.61,2.5,3.94,3.73.35.32.42.53,0,.88-1.34,1.24-2.65,2.52-4,3.77a1.31,1.31,0,0,1-2.25-.53,1.19,1.19,0,0,1,.44-1.23l1.21-1.13c-2.15-.33-4-.08-5.46,1.47s-2.82,3-4.17,4.54a66.42,66.42,0,0,1-5.76,6.33A7.66,7.66,0,0,1,3,20.36a17.3,17.3,0,0,1-2.6.07c-.11,0-.31-.23-.32-.37a12.06,12.06,0,0,1,0-1.7A.56.56,0,0,1,.4,18a3,3,0,0,1,.9,0,4.14,4.14,0,0,0,3.52-1.29c1.33-1.28,2.6-2.62,3.84-4,2-2.22,3.92-4.53,6-6.71A7.74,7.74,0,0,1,19,3.46a20.59,20.59,0,0,1,2.49-.07c.18,0,.37,0,.55,0Z"/><path class="cls-1" d="M22.22,16.63l-1-.94c-.7-.66-.79-1.34-.26-1.9a1.37,1.37,0,0,1,2,.05c1.33,1.25,2.64,2.53,4,3.78.3.28.32.49,0,.78-1.36,1.27-2.7,2.57-4.06,3.84a1.34,1.34,0,0,1-1.91,0,1.2,1.2,0,0,1,.17-1.83l1-1-.06-.17c-.57,0-1.15,0-1.72,0a5.59,5.59,0,0,1-3.7-1.08,29.73,29.73,0,0,1-3.05-2.56c-1-.91-1.06-.64.09-1.65,1-.85,1-.82,1.89.07.69.66,1.41,1.3,2.15,1.9a3.77,3.77,0,0,0,2.67.87c.57,0,1.15,0,1.73,0Z"/><path class="cls-1" d="M.06,4.65V2.28a7.46,7.46,0,0,1,6.77,2C7.93,5.37,9,6.51,10,7.59c.28.29.21.46-.08.67a13.11,13.11,0,0,0-1.16.93c-.32.31-.51.26-.81-.06-.91-1-1.86-2-2.8-2.91a6.53,6.53,0,0,0-.7-.58,4,4,0,0,0-3-1C1,4.69.57,4.65.06,4.65Z"/></svg>